<svg xmlns="http://www.w3.org/2000/svg" zoomAndPan="magnify" height="auto" width="auto"
     viewBox="0 0 786.75 215.999996" preserveAspectRatio="xMidYMid meet" version="1.0">
    <defs>
        <g/>
        <clipPath id="012916f97f">
            <path d="M 7.871094 34.859375 L 176.566406 34.859375 L 176.566406 181.0625 L 7.871094 181.0625 Z M 7.871094 34.859375 "
                  clip-rule="nonzero"/>
        </clipPath>
    </defs>
    <g clip-path="url(#012916f97f)">
        <path fill="#000000"
              d="M 176.730469 181.113281 L 7.871094 181.113281 L 92.300781 34.878906 Z M 15.671875 176.621094 L 168.929688 176.621094 L 92.300781 43.898438 Z M 15.671875 176.621094 "
              fill-opacity="1" fill-rule="nonzero"/>
    </g>
    <g fill="#000000" fill-opacity="1">
        <g transform="translate(207.440087, 151.883459)">
            <g>
                <path d="M 7.734375 0 L 7.734375 -89.0625 L 66.703125 -89.0625 L 66.703125 -73.53125 L 26.5625 -73.53125 L 26.5625 -52.3125 L 62.796875 -52.3125 L 62.796875 -36.78125 L 26.5625 -36.78125 L 26.5625 0 Z M 7.734375 0 "/>
            </g>
        </g>
    </g>
    <g fill="#000000" fill-opacity="1">
        <g transform="translate(279.060648, 151.883459)">
            <g>
                <path d="M 7.390625 0 L 7.390625 -66.796875 L 25.921875 -66.796875 L 25.921875 0 Z M 16.703125 -75.40625 C 13.972656 -75.40625 11.625 -76.320312 9.65625 -78.15625 C 7.6875 -80 6.703125 -82.210938 6.703125 -84.796875 C 6.703125 -87.378906 7.6875 -89.582031 9.65625 -91.40625 C 11.625 -93.226562 13.972656 -94.140625 16.703125 -94.140625 C 19.453125 -94.140625 21.8125 -93.226562 23.78125 -91.40625 C 25.757812 -89.582031 26.75 -87.378906 26.75 -84.796875 C 26.75 -82.210938 25.757812 -80 23.78125 -78.15625 C 21.8125 -76.320312 19.453125 -75.40625 16.703125 -75.40625 Z M 16.703125 -75.40625 "/>
            </g>
        </g>
    </g>
    <g fill="#000000" fill-opacity="1">
        <g transform="translate(312.370516, 151.883459)">
            <g>
                <path d="M 25.921875 -38.609375 L 25.921875 0 L 7.390625 0 L 7.390625 -66.796875 L 25.046875 -66.796875 L 25.046875 -55.015625 L 25.828125 -55.015625 C 27.335938 -58.890625 29.820312 -61.960938 33.28125 -64.234375 C 36.75 -66.515625 40.960938 -67.65625 45.921875 -67.65625 C 52.878906 -67.65625 58.457031 -65.414062 62.65625 -60.9375 C 66.863281 -56.457031 68.96875 -50.320312 68.96875 -42.53125 L 68.96875 0 L 50.4375 0 L 50.4375 -39.21875 C 50.46875 -43.3125 49.425781 -46.507812 47.3125 -48.8125 C 45.195312 -51.113281 42.285156 -52.265625 38.578125 -52.265625 C 34.835938 -52.265625 31.796875 -51.066406 29.453125 -48.671875 C 27.117188 -46.285156 25.941406 -42.929688 25.921875 -38.609375 Z M 25.921875 -38.609375 "/>
            </g>
        </g>
    </g>
    <g fill="#000000" fill-opacity="1">
        <g transform="translate(388.513572, 151.883459)">
            <g>
                <path d="M 4.34375 -73.53125 L 4.34375 -89.0625 L 77.484375 -89.0625 L 77.484375 -73.53125 L 50.21875 -73.53125 L 50.21875 0 L 31.609375 0 L 31.609375 -73.53125 Z M 4.34375 -73.53125 "/>
            </g>
        </g>
    </g>
    <g fill="#000000" fill-opacity="1">
        <g transform="translate(470.35321, 151.883459)">
            <g>
                <path d="M 7.390625 0 L 7.390625 -66.796875 L 25.359375 -66.796875 L 25.359375 -55.140625 L 26.046875 -55.140625 C 27.265625 -59.285156 29.300781 -62.421875 32.15625 -64.546875 C 35.007812 -66.679688 38.320312 -67.75 42.09375 -67.75 C 43.894531 -67.75 45.5625 -67.53125 47.09375 -67.09375 C 48.632812 -66.65625 50.007812 -66.0625 51.21875 -65.3125 L 45.65625 -50 C 44.789062 -50.4375 43.84375 -50.804688 42.8125 -51.109375 C 41.78125 -51.421875 40.628906 -51.578125 39.359375 -51.578125 C 35.617188 -51.578125 32.445312 -50.300781 29.84375 -47.75 C 27.25 -45.195312 25.941406 -41.875 25.921875 -37.78125 L 25.921875 0 Z M 7.390625 0 "/>
            </g>
        </g>
    </g>
    <g fill="#000000" fill-opacity="1">
        <g transform="translate(522.840159, 151.883459)">
            <g>
                <path d="M 26.4375 1.265625 C 20.0625 1.265625 14.769531 -0.398438 10.5625 -3.734375 C 6.363281 -7.066406 4.265625 -12.039062 4.265625 -18.65625 C 4.265625 -23.644531 5.4375 -27.554688 7.78125 -30.390625 C 10.132812 -33.234375 13.21875 -35.3125 17.03125 -36.625 C 20.84375 -37.945312 24.953125 -38.8125 29.359375 -39.21875 C 35.148438 -39.800781 39.289062 -40.410156 41.78125 -41.046875 C 44.28125 -41.679688 45.53125 -43.070312 45.53125 -45.21875 L 45.53125 -45.484375 C 45.53125 -48.234375 44.664062 -50.363281 42.9375 -51.875 C 41.21875 -53.382812 38.773438 -54.140625 35.609375 -54.140625 C 32.273438 -54.140625 29.625 -53.414062 27.65625 -51.96875 C 25.6875 -50.519531 24.382812 -48.675781 23.75 -46.4375 L 6.609375 -47.828125 C 7.878906 -53.921875 11.046875 -58.75 16.109375 -62.3125 C 21.171875 -65.875 27.703125 -67.65625 35.703125 -67.65625 C 40.660156 -67.65625 45.296875 -66.875 49.609375 -65.3125 C 53.929688 -63.75 57.414062 -61.304688 60.0625 -57.984375 C 62.71875 -54.671875 64.046875 -50.359375 64.046875 -45.046875 L 64.046875 0 L 46.484375 0 L 46.484375 -9.265625 L 45.96875 -9.265625 C 44.34375 -6.160156 41.910156 -3.628906 38.671875 -1.671875 C 35.441406 0.285156 31.363281 1.265625 26.4375 1.265625 Z M 31.75 -11.53125 C 35.800781 -11.53125 39.128906 -12.707031 41.734375 -15.0625 C 44.347656 -17.425781 45.65625 -20.363281 45.65625 -23.875 L 45.65625 -30.96875 C 44.9375 -30.46875 43.8125 -30.03125 42.28125 -29.65625 C 40.757812 -29.28125 39.132812 -28.953125 37.40625 -28.671875 C 35.6875 -28.398438 34.144531 -28.160156 32.78125 -27.953125 C 29.539062 -27.492188 26.925781 -26.582031 24.9375 -25.21875 C 22.945312 -23.851562 21.953125 -21.867188 21.953125 -19.265625 C 21.953125 -16.710938 22.875 -14.785156 24.71875 -13.484375 C 26.5625 -12.179688 28.90625 -11.53125 31.75 -11.53125 Z M 31.75 -11.53125 "/>
            </g>
        </g>
    </g>
    <g fill="#000000" fill-opacity="1">
        <g transform="translate(593.895404, 151.883459)">
            <g>
                <path d="M 37.578125 1.296875 C 30.734375 1.296875 24.851562 -0.15625 19.9375 -3.0625 C 15.019531 -5.976562 11.25 -10.03125 8.625 -15.21875 C 6.007812 -20.40625 4.703125 -26.378906 4.703125 -33.140625 C 4.703125 -39.972656 6.023438 -45.976562 8.671875 -51.15625 C 11.328125 -56.332031 15.101562 -60.375 20 -63.28125 C 24.90625 -66.195312 30.734375 -67.65625 37.484375 -67.65625 C 43.304688 -67.65625 48.414062 -66.597656 52.8125 -64.484375 C 57.207031 -62.367188 60.671875 -59.394531 63.203125 -55.5625 C 65.742188 -51.738281 67.144531 -47.25 67.40625 -42.09375 L 49.921875 -42.09375 C 49.429688 -45.425781 48.132812 -48.113281 46.03125 -50.15625 C 43.925781 -52.195312 41.175781 -53.21875 37.78125 -53.21875 C 33.5 -53.21875 30.050781 -51.492188 27.4375 -48.046875 C 24.832031 -44.597656 23.53125 -39.710938 23.53125 -33.390625 C 23.53125 -27.015625 24.828125 -22.078125 27.421875 -18.578125 C 30.015625 -15.085938 33.46875 -13.34375 37.78125 -13.34375 C 40.976562 -13.34375 43.660156 -14.304688 45.828125 -16.234375 C 48.003906 -18.171875 49.367188 -20.921875 49.921875 -24.484375 L 67.40625 -24.484375 C 67.113281 -19.378906 65.726562 -14.882812 63.25 -11 C 60.769531 -7.113281 57.351562 -4.09375 53 -1.9375 C 48.65625 0.21875 43.515625 1.296875 37.578125 1.296875 Z M 37.578125 1.296875 "/>
            </g>
        </g>
    </g>
    <g fill="#000000" fill-opacity="1">
        <g transform="translate(665.820373, 151.883459)">
            <g>
                <path d="M 7.390625 0 L 7.390625 -89.0625 L 25.921875 -89.0625 L 25.921875 -41.4375 L 26.921875 -41.4375 L 48.3125 -66.796875 L 69.578125 -66.796875 L 44.796875 -37.875 L 70.84375 0 L 49.140625 0 L 30.921875 -26.921875 L 25.921875 -21.21875 L 25.921875 0 Z M 7.390625 0 "/>
            </g>
        </g>
    </g>
</svg>