<svg xmlns="http://www.w3.org/2000/svg" xmlns:xlink="http://www.w3.org/1999/xlink" width="500" zoomAndPan="magnify" viewBox="0 0 375 299.999988" height="400" preserveAspectRatio="xMidYMid meet" version="1.0"><defs><g/><clipPath id="6a0a3d22a8"><path d="M 106.335938 13.703125 L 268.335938 13.703125 L 268.335938 195.203125 L 106.335938 195.203125 Z M 106.335938 13.703125 " clip-rule="nonzero"/></clipPath></defs><g clip-path="url(#6a0a3d22a8)"><path fill="#4f46e6" d="M 187.480469 13.667969 C 198.324219 13.667969 207.128906 22.472656 207.128906 33.28125 C 207.128906 35.316406 207.128906 36.664062 206.4375 38.011719 L 235.511719 54.929688 C 238.898438 51.546875 243.628906 49.507812 249.050781 49.507812 C 259.855469 49.507812 268.664062 58.316406 268.664062 69.121094 C 268.664062 77.929688 262.585938 85.351562 254.472656 88.042969 L 254.472656 121.847656 C 262.585938 123.886719 268.664062 131.308594 268.664062 140.117188 C 268.664062 150.921875 259.855469 159.730469 249.050781 159.730469 C 238.242188 159.730469 229.4375 150.921875 229.4375 140.117188 C 229.4375 131.308594 235.511719 123.886719 243.628906 121.847656 L 243.628906 88.042969 C 235.511719 85.351562 229.4375 77.890625 229.4375 69.121094 C 229.4375 67.777344 229.4375 66.429688 230.128906 64.390625 L 201.054688 48.164062 C 197.667969 50.855469 192.9375 52.894531 187.515625 52.894531 C 176.710938 52.894531 167.902344 44.085938 167.902344 33.28125 C 167.902344 22.472656 176.671875 13.667969 187.480469 13.667969 Z M 144.871094 73.851562 L 173.945312 90.082031 C 177.328125 87.390625 182.058594 85.351562 187.480469 85.351562 C 198.289062 85.351562 207.09375 94.15625 207.09375 104.964844 C 207.09375 113.769531 201.015625 121.195312 192.902344 123.230469 L 192.902344 157.035156 C 201.015625 159.730469 207.09375 167.1875 207.09375 175.957031 C 207.09375 186.765625 198.289062 195.570312 187.480469 195.570312 C 176.671875 195.570312 167.867188 186.765625 167.867188 175.957031 C 167.867188 167.152344 173.945312 159.730469 181.402344 157.035156 L 181.402344 123.230469 C 173.980469 121.195312 167.867188 113.769531 167.867188 104.964844 C 167.867188 102.925781 167.867188 101.582031 168.558594 100.234375 L 139.484375 83.3125 C 135.410156 86.699219 130.679688 88.734375 125.949219 88.734375 C 115.140625 88.734375 106.335938 79.964844 106.335938 69.121094 C 106.335938 58.277344 115.140625 49.507812 125.949219 49.507812 C 136.753906 49.507812 145.5625 58.316406 145.5625 69.121094 C 145.5625 70.46875 144.871094 71.851562 144.871094 73.851562 Z M 125.949219 120.539062 C 136.753906 120.539062 145.5625 129.34375 145.5625 140.152344 C 145.5625 150.960938 136.753906 159.765625 125.949219 159.765625 C 115.140625 159.765625 106.335938 150.960938 106.335938 140.152344 C 106.335938 129.34375 115.140625 120.539062 125.949219 120.539062 Z M 125.949219 120.539062 " fill-opacity="1" fill-rule="nonzero"/></g><g fill="#000000" fill-opacity="1"><g transform="translate(39.44098, 267.711261)"><g><path d="M 5.09375 -39.59375 L 34.21875 -39.59375 L 34.21875 -31.671875 L 13.578125 -31.671875 L 13.578125 -22.34375 L 29.6875 -22.34375 L 29.6875 -14.421875 L 13.578125 -14.421875 L 13.578125 0 L 5.09375 0 Z M 5.09375 -39.59375 "/></g></g></g><g fill="#000000" fill-opacity="1"><g transform="translate(75.637775, 267.711261)"><g><path d="M 5.09375 -39.59375 L 13.578125 -39.59375 L 13.578125 0 L 5.09375 0 Z M 5.09375 -39.59375 "/></g></g></g><g fill="#000000" fill-opacity="1"><g transform="translate(94.301737, 267.711261)"><g><path d="M 5.09375 -39.59375 L 12.71875 -39.59375 L 31.953125 -14.984375 L 31.953125 -39.59375 L 40.4375 -39.59375 L 40.4375 0 L 32.8125 0 L 13.578125 -24.609375 L 13.578125 0 L 5.09375 0 Z M 5.09375 -39.59375 "/></g></g></g><g fill="#000000" fill-opacity="1"><g transform="translate(139.830524, 267.711261)"><g><path d="M 12.4375 -31.671875 L 1.125 -31.671875 L 1.125 -39.59375 L 32.234375 -39.59375 L 32.234375 -31.671875 L 20.921875 -31.671875 L 20.921875 0 L 12.4375 0 Z M 12.4375 -31.671875 "/></g></g></g><g fill="#000000" fill-opacity="1"><g transform="translate(173.199448, 267.711261)"><g><path d="M 5.09375 -39.59375 L 22.625 -39.59375 C 24.738281 -39.59375 26.648438 -39.269531 28.359375 -38.625 C 30.078125 -37.988281 31.539062 -37.082031 32.75 -35.90625 C 33.957031 -34.738281 34.878906 -33.335938 35.515625 -31.703125 C 36.160156 -30.066406 36.484375 -28.265625 36.484375 -26.296875 C 36.484375 -24.035156 36.132812 -22.148438 35.4375 -20.640625 C 34.738281 -19.128906 33.957031 -17.941406 33.09375 -17.078125 C 32.113281 -16.054688 30.976562 -15.265625 29.6875 -14.703125 L 37.890625 0 L 28.5625 0 L 21.5 -13.015625 L 13.578125 -13.015625 L 13.578125 0 L 5.09375 0 Z M 22.34375 -20.921875 C 23.925781 -20.921875 25.21875 -21.421875 26.21875 -22.421875 C 27.21875 -23.421875 27.71875 -24.710938 27.71875 -26.296875 C 27.71875 -27.878906 27.21875 -29.171875 26.21875 -30.171875 C 25.21875 -31.171875 23.925781 -31.671875 22.34375 -31.671875 L 13.578125 -31.671875 L 13.578125 -20.921875 Z M 22.34375 -20.921875 "/></g></g></g><g fill="#000000" fill-opacity="1"><g transform="translate(213.072471, 267.711261)"><g><path d="M 15.546875 -39.59375 L 25.171875 -39.59375 L 40.4375 0 L 31.390625 0 L 28 -9.046875 L 12.71875 -9.046875 L 9.328125 0 L 0.28125 0 Z M 25.171875 -16.6875 L 20.46875 -29.6875 L 20.25 -29.6875 L 15.546875 -16.6875 Z M 25.171875 -16.6875 "/></g></g></g><g fill="#000000" fill-opacity="1"><g transform="translate(253.793877, 267.711261)"><g><path d="M 24.03125 0.84375 C 20.976562 0.84375 18.140625 0.296875 15.515625 -0.796875 C 12.898438 -1.890625 10.628906 -3.367188 8.703125 -5.234375 C 6.785156 -7.097656 5.28125 -9.28125 4.1875 -11.78125 C 3.09375 -14.289062 2.546875 -16.960938 2.546875 -19.796875 C 2.546875 -22.617188 3.09375 -25.285156 4.1875 -27.796875 C 5.28125 -30.304688 6.785156 -32.492188 8.703125 -34.359375 C 10.628906 -36.222656 12.898438 -37.703125 15.515625 -38.796875 C 18.140625 -39.890625 20.976562 -40.4375 24.03125 -40.4375 C 26.789062 -40.4375 29.21875 -40.019531 31.3125 -39.1875 C 33.40625 -38.363281 35.148438 -37.460938 36.546875 -36.484375 C 38.160156 -35.316406 39.550781 -33.992188 40.71875 -32.515625 L 35.0625 -26.859375 C 34.238281 -27.921875 33.28125 -28.863281 32.1875 -29.6875 C 31.238281 -30.40625 30.085938 -31.054688 28.734375 -31.640625 C 27.378906 -32.222656 25.8125 -32.515625 24.03125 -32.515625 C 22.257812 -32.515625 20.601562 -32.1875 19.0625 -31.53125 C 17.519531 -30.875 16.171875 -29.96875 15.015625 -28.8125 C 13.867188 -27.664062 12.960938 -26.316406 12.296875 -24.765625 C 11.640625 -23.222656 11.3125 -21.566406 11.3125 -19.796875 C 11.3125 -18.023438 11.640625 -16.363281 12.296875 -14.8125 C 12.960938 -13.269531 13.867188 -11.921875 15.015625 -10.765625 C 16.171875 -9.617188 17.519531 -8.710938 19.0625 -8.046875 C 20.601562 -7.390625 22.257812 -7.0625 24.03125 -7.0625 C 25.882812 -7.0625 27.507812 -7.351562 28.90625 -7.9375 C 30.300781 -8.53125 31.488281 -9.179688 32.46875 -9.890625 C 33.59375 -10.722656 34.550781 -11.664062 35.34375 -12.71875 L 41 -7.0625 C 39.832031 -5.59375 38.421875 -4.273438 36.765625 -3.109375 C 35.328125 -2.128906 33.550781 -1.222656 31.4375 -0.390625 C 29.332031 0.429688 26.863281 0.84375 24.03125 0.84375 Z M 24.03125 0.84375 "/></g></g></g><g fill="#000000" fill-opacity="1"><g transform="translate(295.929207, 267.711261)"><g><path d="M 5.09375 -39.59375 L 13.578125 -39.59375 L 13.578125 -22.625 L 28.84375 -39.59375 L 39.03125 -39.59375 L 24.328125 -23.1875 L 40.15625 0 L 30.265625 0 L 18.671875 -16.96875 L 13.578125 -11.59375 L 13.578125 0 L 5.09375 0 Z M 5.09375 -39.59375 "/></g></g></g></svg>